<?xml version="1.0" encoding="UTF-8" standalone="no"?>
<!DOCTYPE svg PUBLIC "-//W3C//DTD SVG 1.1//EN"
 "http://www.w3.org/Graphics/SVG/1.1/DTD/svg11.dtd">
<!-- Generated by graphviz version 6.0.1 (20220911.1526)
 -->
<!-- Title: Delivery infra Pages: 1 -->
<svg width="785pt" height="526pt"
 viewBox="0.00 0.00 784.86 526.00" xmlns="http://www.w3.org/2000/svg" xmlns:xlink="http://www.w3.org/1999/xlink">
<g id="graph0" class="graph" transform="scale(1 1) rotate(0) translate(4 522)">
<title>Delivery infra</title>
<g id="a_graph0"><a xlink:title=" ">
<polygon fill="white" stroke="none" points="-4,4 -4,-522 780.86,-522 780.86,4 -4,4"/>
<text text-anchor="middle" x="388.43" y="-502.8" font-family="'Roboto', sans-serif" font-size="14.00">Delivery infra</text>
</a>
</g>
<g id="clust1" class="cluster">
<title>cluster_datacenter</title>
<g id="a_clust1"><a xlink:title=" ">
<polygon fill="#f0f0f0" stroke="black" points="227.59,-46 227.59,-175 768.86,-175 768.86,-46 227.59,-46"/>
<text text-anchor="middle" x="498.23" y="-159.8" font-family="'Roboto', sans-serif" font-size="14.00">Datacenter</text>
</a>
</g>
</g>
<g id="clust2" class="cluster">
<title>cluster_warehouse</title>
<g id="a_clust2"><a xlink:title=" ">
<polygon fill="#f0f0f0" stroke="black" points="363.98,-183 363.98,-487 675.86,-487 675.86,-183 363.98,-183"/>
<text text-anchor="middle" x="519.92" y="-471.8" font-family="'Roboto', sans-serif" font-size="14.00">Warehouse</text>
</a>
</g>
</g>
<g id="clust3" class="cluster">
<title>cluster_package</title>
<g id="a_clust3"><a xlink:title=" ">
<polygon fill="#f0f0f0" stroke="black" points="371.98,-237 371.98,-456 534.87,-456 534.87,-237 371.98,-237"/>
<text text-anchor="middle" x="453.43" y="-440.8" font-family="'Roboto', sans-serif" font-size="14.00">Package</text>
</a>
</g>
</g>
<g id="clust4" class="cluster">
<title>cluster_deliver</title>
<g id="a_clust4"><a xlink:title=" ">
<polygon fill="#f0f0f0" stroke="black" points="8,-73 8,-148 104.59,-148 104.59,-73 8,-73"/>
<text text-anchor="middle" x="56.3" y="-132.8" font-family="'Roboto', sans-serif" font-size="14.00">Deliver</text>
</a>
</g>
</g>
<!-- rabbit -->
<g id="node1" class="node">
<title>rabbit</title>
<g id="a_node1"><a xlink:href="https://www.rabbitmq.com/" xlink:title=" " target="_top">
<ellipse fill="lightgrey" stroke="black" cx="286.29" cy="-99" rx="50.89" ry="18"/>
<text text-anchor="start" x="255.29" y="-96.3" font-family="'Roboto', sans-serif" text-decoration="underline" font-size="14.00" fill="blue">RabbitMQ</text>
</a>
</g>
</g>
<!-- beaver -->
<g id="node2" class="node">
<title>beaver</title>
<g id="a_node2"><a xlink:title=" ">
<ellipse fill="lightgrey" stroke="black" cx="453.43" cy="-72" rx="64.19" ry="18"/>
<text text-anchor="middle" x="453.43" y="-68.3" font-family="'Roboto', sans-serif" font-size="14.00">AMQP bridge</text>
</a>
</g>
</g>
<!-- rabbit&#45;&gt;beaver -->
<g id="edge10" class="edge">
<title>rabbit&#45;&gt;beaver</title>
<g id="a_edge10"><a xlink:title=" ">
<path fill="none" stroke="black" d="M342.78,-88.91C357.02,-86.59 372.47,-84.06 387.15,-81.66"/>
<path fill="none" stroke="black" d="M343.1,-90.89C357.35,-88.56 372.79,-86.03 387.47,-83.63"/>
<polygon fill="black" stroke="black" points="342.15,-86.48 332.85,-91.55 343.28,-93.39 342.15,-86.48"/>
<polygon fill="black" stroke="black" points="388.02,-86.08 397.32,-81.01 386.89,-79.17 388.02,-86.08"/>
</a>
</g>
</g>
<!-- ldap -->
<g id="node6" class="node">
<title>ldap</title>
<g id="a_node6"><a xlink:title=" ">
<ellipse fill="lightgrey" stroke="black" cx="453.43" cy="-126" rx="31.7" ry="18"/>
<text text-anchor="middle" x="453.43" y="-122.3" font-family="'Roboto', sans-serif" font-size="14.00">LDAP</text>
</a>
</g>
</g>
<!-- rabbit&#45;&gt;ldap -->
<g id="edge11" class="edge">
<title>rabbit&#45;&gt;ldap</title>
<g id="a_edge11"><a xlink:title=" ">
<path fill="none" stroke="black" d="M342.85,-108.08C369.53,-112.45 400.46,-117.5 422.63,-121.13"/>
<polygon fill="black" stroke="black" points="343.28,-104.61 332.85,-106.45 342.15,-111.52 343.28,-104.61"/>
</a>
</g>
</g>
<!-- octopus -->
<g id="node4" class="node">
<title>octopus</title>
<g id="a_node4"><a xlink:title=" ">
<ellipse fill="lightgrey" stroke="black" cx="615.87" cy="-126" rx="48.99" ry="18"/>
<text text-anchor="middle" x="615.87" y="-122.3" font-family="'Roboto', sans-serif" font-size="14.00">REST API</text>
</a>
</g>
</g>
<!-- beaver&#45;&gt;octopus -->
<g id="edge12" class="edge">
<title>beaver&#45;&gt;octopus</title>
<g id="a_edge12"><a xlink:title=" ">
<path fill="none" stroke="black" d="M495.36,-85.72C508.02,-89.97 522.03,-94.68 534.87,-99 546.15,-102.8 558.33,-106.9 569.69,-110.74"/>
<polygon fill="black" stroke="black" points="568.83,-114.14 579.43,-114.02 571.07,-107.51 568.83,-114.14"/>
</a>
</g>
</g>
<!-- feather -->
<g id="node3" class="node">
<title>feather</title>
<g id="a_node3"><a xlink:title=" ">
<polygon fill="lightgrey" stroke="black" points="760.86,-117 757.86,-121 736.86,-121 733.86,-117 704.86,-117 704.86,-81 760.86,-81 760.86,-117"/>
<text text-anchor="middle" x="732.86" y="-95.3" font-family="'Roboto', sans-serif" font-size="14.00">SQLite</text>
</a>
</g>
</g>
<!-- octopus&#45;&gt;feather -->
<g id="edge8" class="edge">
<title>octopus&#45;&gt;feather</title>
<g id="a_edge8"><a xlink:title=" ">
<path fill="none" stroke="black" d="M657.41,-116.48C669.51,-113.64 682.72,-110.54 694.6,-107.75"/>
<polygon fill="black" stroke="black" points="695.7,-111.08 704.64,-105.39 694.1,-104.27 695.7,-111.08"/>
</a>
</g>
</g>
<!-- fox -->
<g id="node5" class="node">
<title>fox</title>
<g id="a_node5"><a xlink:title=" ">
<ellipse fill="lightgrey" stroke="black" cx="615.87" cy="-72" rx="44.69" ry="18"/>
<text text-anchor="middle" x="615.87" y="-68.3" font-family="'Roboto', sans-serif" font-size="14.00">WebApp</text>
</a>
</g>
</g>
<!-- fox&#45;&gt;feather -->
<g id="edge9" class="edge">
<title>fox&#45;&gt;feather</title>
<g id="a_edge9"><a xlink:title=" ">
<path fill="none" stroke="black" d="M664.65,-83.22C678.37,-86.44 692.85,-89.84 704.84,-92.66"/>
<polygon fill="black" stroke="black" points="665.37,-79.79 654.84,-80.92 663.77,-86.61 665.37,-79.79"/>
</a>
</g>
</g>
<!-- mosquitto -->
<g id="node7" class="node">
<title>mosquitto</title>
<g id="a_node7"><a xlink:href="https://www.mosquitto.org/" xlink:title=" " target="_top">
<ellipse fill="lightgrey" stroke="black" cx="615.87" cy="-263" rx="51.99" ry="18"/>
<text text-anchor="start" x="583.87" y="-260.3" font-family="'Roboto', sans-serif" text-decoration="underline" font-size="14.00" fill="blue">Mosquitto</text>
</a>
</g>
</g>
<!-- bridge -->
<g id="node10" class="node">
<title>bridge</title>
<g id="a_node10"><a xlink:title=" ">
<ellipse fill="lightgrey" stroke="black" cx="453.43" cy="-209" rx="63.89" ry="18"/>
<text text-anchor="middle" x="453.43" y="-205.3" font-family="'Roboto', sans-serif" font-size="14.00">MQTT bridge</text>
</a>
</g>
</g>
<!-- mosquitto&#45;&gt;bridge -->
<g id="edge6" class="edge">
<title>mosquitto&#45;&gt;bridge</title>
<g id="a_edge6"><a xlink:title=" ">
<path fill="none" stroke="black" d="M580.79,-249.63C566.66,-244.24 550.05,-238.11 534.87,-233 526.44,-230.17 517.46,-227.32 508.66,-224.63"/>
<polygon fill="black" stroke="black" points="509.44,-221.2 498.86,-221.66 507.42,-227.9 509.44,-221.2"/>
</a>
</g>
</g>
<!-- dnsmasq -->
<g id="node8" class="node">
<title>dnsmasq</title>
<g id="a_node8"><a xlink:href="https://thekelleys.org.uk/dnsmasq/doc.html" xlink:title=" " target="_top">
<ellipse fill="lightgrey" stroke="black" cx="615.87" cy="-322" rx="48.19" ry="18"/>
<text text-anchor="start" x="586.87" y="-319.3" font-family="'Roboto', sans-serif" text-decoration="underline" font-size="14.00" fill="blue">dnsmasq</text>
</a>
</g>
</g>
<!-- hostapd -->
<g id="node9" class="node">
<title>hostapd</title>
<g id="a_node9"><a xlink:href="https://w1.fi/hostapd/" xlink:title=" " target="_top">
<ellipse fill="lightgrey" stroke="black" cx="615.87" cy="-376" rx="44.69" ry="18"/>
<text text-anchor="start" x="589.37" y="-373.3" font-family="'Roboto', sans-serif" text-decoration="underline" font-size="14.00" fill="blue">hostapd</text>
</a>
</g>
</g>
<!-- bridge&#45;&gt;octopus -->
<g id="edge7" class="edge">
<title>bridge&#45;&gt;octopus</title>
<g id="a_edge7"><a xlink:title=" ">
<path fill="none" stroke="black" d="M496.13,-195.5C508.83,-190.85 522.65,-185.22 534.87,-179 552.37,-170.09 570.71,-158.15 585.41,-147.86"/>
<polygon fill="black" stroke="black" points="587.49,-150.67 593.61,-142.02 583.44,-144.97 587.49,-150.67"/>
</a>
</g>
</g>
<!-- pyapp -->
<g id="node11" class="node">
<title>pyapp</title>
<g id="a_node11"><a xlink:title=" ">
<ellipse fill="lightgrey" stroke="black" cx="453.43" cy="-263" rx="36.29" ry="18"/>
<text text-anchor="middle" x="453.43" y="-259.3" font-family="'Roboto', sans-serif" font-size="14.00">pyapp</text>
</a>
</g>
</g>
<!-- pyapp&#45;&gt;mosquitto -->
<g id="edge5" class="edge">
<title>pyapp&#45;&gt;mosquitto</title>
<g id="a_edge5"><a xlink:title=" ">
<path fill="none" stroke="black" d="M490.03,-263C508.76,-263 532.25,-263 553.78,-263"/>
<polygon fill="black" stroke="black" points="553.84,-266.5 563.84,-263 553.84,-259.5 553.84,-266.5"/>
</a>
</g>
</g>
<!-- cron -->
<g id="node12" class="node">
<title>cron</title>
<g id="a_node12"><a xlink:title=" ">
<ellipse fill="lightgrey" stroke="black" cx="453.43" cy="-407" rx="29.5" ry="18"/>
<text text-anchor="middle" x="453.43" y="-403.3" font-family="'Roboto', sans-serif" font-size="14.00">cron</text>
</a>
</g>
</g>
<!-- wpa_supplicant -->
<g id="node13" class="node">
<title>wpa_supplicant</title>
<g id="a_node13"><a xlink:href="https://w1.fi/wpa_supplicant/" xlink:title=" " target="_top">
<ellipse fill="lightgrey" stroke="black" cx="453.43" cy="-335" rx="73.39" ry="18"/>
<text text-anchor="start" x="404.93" y="-332.3" font-family="'Roboto', sans-serif" text-decoration="underline" font-size="14.00" fill="blue">wpa supplicant</text>
</a>
</g>
</g>
<!-- cron&#45;&gt;wpa_supplicant -->
<g id="edge1" class="edge">
<title>cron&#45;&gt;wpa_supplicant</title>
<g id="a_edge1"><a xlink:title=" ">
<path fill="none" stroke="black" d="M453.43,-388.86C453.43,-380.27 453.43,-371.68 453.43,-363.09"/>
<polygon fill="black" stroke="black" points="456.93,-363 453.43,-353 449.93,-363 456.93,-363"/>
</a>
</g>
</g>
<!-- wpa_supplicant&#45;&gt;dnsmasq -->
<g id="edge3" class="edge">
<title>wpa_supplicant&#45;&gt;dnsmasq</title>
<g id="a_edge3"><a xlink:title=" ">
<path fill="none" stroke="black" d="M544.9,-326.67C549.5,-326.29 554.05,-325.92 558.49,-325.56"/>
<path fill="none" stroke="black" d="M545.06,-328.66C549.66,-328.29 554.21,-327.92 558.66,-327.56"/>
<polygon fill="black" stroke="black" points="544.55,-324.19 534.87,-328.48 545.12,-331.16 544.55,-324.19"/>
<polygon fill="black" stroke="black" points="558.96,-330.04 568.65,-325.74 558.4,-323.06 558.96,-330.04"/>
</a>
</g>
</g>
<!-- wpa_supplicant&#45;&gt;hostapd -->
<g id="edge2" class="edge">
<title>wpa_supplicant&#45;&gt;hostapd</title>
<g id="a_edge2"><a xlink:title=" ">
<path fill="none" stroke="black" d="M515.27,-349.52C532.71,-353.97 551.46,-358.77 567.96,-362.98"/>
<path fill="none" stroke="black" d="M514.78,-351.45C532.21,-355.91 550.97,-360.7 567.46,-364.92"/>
<polygon fill="black" stroke="black" points="515.75,-347.06 505.19,-347.97 514.01,-353.84 515.75,-347.06"/>
<polygon fill="black" stroke="black" points="567.1,-367.41 577.66,-366.49 568.83,-360.62 567.1,-367.41"/>
</a>
</g>
</g>
<!-- wpa_supplicant&#45;&gt;pyapp -->
<g id="edge4" class="edge">
<title>wpa_supplicant&#45;&gt;pyapp</title>
<g id="a_edge4"><a xlink:title=" ">
<path fill="none" stroke="black" d="M453.43,-316.86C453.43,-308.27 453.43,-299.68 453.43,-291.09"/>
<polygon fill="black" stroke="black" points="456.93,-291 453.43,-281 449.93,-291 456.93,-291"/>
</a>
</g>
</g>
<!-- telapp -->
<g id="node14" class="node">
<title>telapp</title>
<g id="a_node14"><a xlink:title=" ">
<ellipse fill="lightgrey" stroke="black" cx="56.3" cy="-99" rx="40.09" ry="18"/>
<text text-anchor="middle" x="56.3" y="-95.3" font-family="'Roboto', sans-serif" font-size="14.00">Tel app</text>
</a>
</g>
</g>
<!-- telapp&#45;&gt;rabbit -->
<g id="edge13" class="edge">
<title>telapp&#45;&gt;rabbit</title>
<g id="a_edge13"><a xlink:title=" ">
<path fill="none" stroke="black" d="M107.1,-98C141.92,-98 188.61,-98 225.46,-98"/>
<path fill="none" stroke="black" d="M107.1,-100C141.92,-100 188.61,-100 225.46,-100"/>
<polygon fill="black" stroke="black" points="106.75,-95.5 96.75,-99 106.75,-102.5 106.75,-95.5"/>
<polygon fill="black" stroke="black" points="225.58,-102.5 235.58,-99 225.58,-95.5 225.58,-102.5"/>
</a>
</g>
<text text-anchor="middle" x="166.09" y="-102.8" font-family="'Roboto', sans-serif" font-size="14.00">AMQP TLS</text>
</g>
<!-- client -->
<g id="node15" class="node">
<title>client</title>
<g id="a_node15"><a xlink:title=" ">
<polygon fill="lightgrey" stroke="black" points="480.43,-36 426.43,-36 426.43,0 480.43,0 480.43,-36"/>
<text text-anchor="middle" x="453.43" y="-14.3" font-family="'Roboto', sans-serif" font-size="14.00">Client</text>
</a>
</g>
</g>
<!-- client&#45;&gt;fox -->
<g id="edge14" class="edge">
<title>client&#45;&gt;fox</title>
<g id="a_edge14"><a xlink:title=" ">
<path fill="none" stroke="black" d="M490.39,-28.15C504.35,-32.25 520.42,-37.14 534.87,-42 550.9,-47.39 568.51,-53.93 583.13,-59.52"/>
<polygon fill="black" stroke="black" points="491.23,-24.76 480.66,-25.33 489.28,-31.48 491.23,-24.76"/>
</a>
</g>
</g>
</g>
</svg>
