<?xml version="1.0" encoding="UTF-8" standalone="no"?>
<!DOCTYPE svg PUBLIC "-//W3C//DTD SVG 1.1//EN"
 "http://www.w3.org/Graphics/SVG/1.1/DTD/svg11.dtd">
<!-- Generated by graphviz version 6.0.1 (20220911.1526)
 -->
<!-- Title: Delivery infra Pages: 1 -->
<svg width="785pt" height="524pt"
 viewBox="0.00 0.00 784.86 524.00" xmlns="http://www.w3.org/2000/svg" xmlns:xlink="http://www.w3.org/1999/xlink">
<g id="graph0" class="graph" transform="scale(1 1) rotate(0) translate(4 520)">
<title>Delivery infra</title>
<g id="a_graph0"><a xlink:title=" ">
<polygon fill="white" stroke="none" points="-4,4 -4,-520 780.86,-520 780.86,4 -4,4"/>
<text text-anchor="middle" x="388.43" y="-500.8" font-family="'Roboto', sans-serif" font-size="14.00">Delivery infra</text>
</a>
</g>
<g id="clust1" class="cluster">
<title>cluster_datacenter</title>
<g id="a_clust1"><a xlink:title=" ">
<polygon fill="#f0f0f0" stroke="black" points="227.59,-44 227.59,-173 768.86,-173 768.86,-44 227.59,-44"/>
<text text-anchor="middle" x="498.23" y="-157.8" font-family="'Roboto', sans-serif" font-size="14.00">Datacenter</text>
</a>
</g>
</g>
<g id="clust2" class="cluster">
<title>cluster_warehouse</title>
<g id="a_clust2"><a xlink:title=" ">
<polygon fill="#f0f0f0" stroke="black" points="363.98,-181 363.98,-485 675.86,-485 675.86,-181 363.98,-181"/>
<text text-anchor="middle" x="519.92" y="-469.8" font-family="'Roboto', sans-serif" font-size="14.00">Warehouse</text>
</a>
</g>
</g>
<g id="clust3" class="cluster">
<title>cluster_package</title>
<g id="a_clust3"><a xlink:title=" ">
<polygon fill="#f0f0f0" stroke="black" points="371.98,-235 371.98,-454 534.87,-454 534.87,-235 371.98,-235"/>
<text text-anchor="middle" x="453.43" y="-438.8" font-family="'Roboto', sans-serif" font-size="14.00">Package</text>
</a>
</g>
</g>
<g id="clust4" class="cluster">
<title>cluster_deliver</title>
<g id="a_clust4"><a xlink:title=" ">
<polygon fill="#f0f0f0" stroke="black" points="8,-98 8,-173 104.59,-173 104.59,-98 8,-98"/>
<text text-anchor="middle" x="56.3" y="-157.8" font-family="'Roboto', sans-serif" font-size="14.00">Deliver</text>
</a>
</g>
</g>
<!-- rabbit -->
<g id="node1" class="node">
<title>rabbit</title>
<g id="a_node1"><a xlink:href="https://www.rabbitmq.com/" xlink:title=" " target="_top">
<ellipse fill="lightgrey" stroke="black" cx="286.29" cy="-124" rx="50.89" ry="18"/>
<text text-anchor="start" x="255.29" y="-121.3" font-family="'Roboto', sans-serif" text-decoration="underline" font-size="14.00" fill="blue">RabbitMQ</text>
</a>
</g>
</g>
<!-- beaver -->
<g id="node2" class="node">
<title>beaver</title>
<g id="a_node2"><a xlink:title=" ">
<ellipse fill="lightgrey" stroke="black" cx="453.43" cy="-124" rx="64.19" ry="18"/>
<text text-anchor="middle" x="453.43" y="-120.3" font-family="'Roboto', sans-serif" font-size="14.00">AMQP bridge</text>
</a>
</g>
</g>
<!-- rabbit&#45;&gt;beaver -->
<g id="edge11" class="edge">
<title>rabbit&#45;&gt;beaver</title>
<g id="a_edge11"><a xlink:title=" ">
<path fill="none" stroke="black" d="M347.4,-123C357.51,-123 368.1,-123 378.51,-123"/>
<path fill="none" stroke="black" d="M347.4,-125C357.51,-125 368.1,-125 378.51,-125"/>
<polygon fill="black" stroke="black" points="347.28,-120.5 337.28,-124 347.28,-127.5 347.28,-120.5"/>
<polygon fill="black" stroke="black" points="378.84,-127.5 388.84,-124 378.84,-120.5 378.84,-127.5"/>
</a>
</g>
</g>
<!-- octopus -->
<g id="node4" class="node">
<title>octopus</title>
<g id="a_node4"><a xlink:title=" ">
<ellipse fill="lightgrey" stroke="black" cx="615.87" cy="-124" rx="48.99" ry="18"/>
<text text-anchor="middle" x="615.87" y="-120.3" font-family="'Roboto', sans-serif" font-size="14.00">REST API</text>
</a>
</g>
</g>
<!-- beaver&#45;&gt;octopus -->
<g id="edge12" class="edge">
<title>beaver&#45;&gt;octopus</title>
<g id="a_edge12"><a xlink:title=" ">
<path fill="none" stroke="black" d="M517.84,-124C530.56,-124 543.88,-124 556.43,-124"/>
<polygon fill="black" stroke="black" points="556.76,-127.5 566.76,-124 556.76,-120.5 556.76,-127.5"/>
</a>
</g>
</g>
<!-- feather -->
<g id="node3" class="node">
<title>feather</title>
<g id="a_node3"><a xlink:title=" ">
<polygon fill="lightgrey" stroke="black" points="760.86,-115 757.86,-119 736.86,-119 733.86,-115 704.86,-115 704.86,-79 760.86,-79 760.86,-115"/>
<text text-anchor="middle" x="732.86" y="-93.3" font-family="'Roboto', sans-serif" font-size="14.00">SQLite</text>
</a>
</g>
</g>
<!-- octopus&#45;&gt;feather -->
<g id="edge9" class="edge">
<title>octopus&#45;&gt;feather</title>
<g id="a_edge9"><a xlink:title=" ">
<path fill="none" stroke="black" d="M657.41,-114.48C669.51,-111.64 682.72,-108.54 694.6,-105.75"/>
<polygon fill="black" stroke="black" points="695.7,-109.08 704.64,-103.39 694.1,-102.27 695.7,-109.08"/>
</a>
</g>
</g>
<!-- fox -->
<g id="node5" class="node">
<title>fox</title>
<g id="a_node5"><a xlink:title=" ">
<ellipse fill="lightgrey" stroke="black" cx="615.87" cy="-70" rx="44.69" ry="18"/>
<text text-anchor="middle" x="615.87" y="-66.3" font-family="'Roboto', sans-serif" font-size="14.00">WebApp</text>
</a>
</g>
</g>
<!-- fox&#45;&gt;feather -->
<g id="edge10" class="edge">
<title>fox&#45;&gt;feather</title>
<g id="a_edge10"><a xlink:title=" ">
<path fill="none" stroke="black" d="M664.65,-81.22C678.37,-84.44 692.85,-87.84 704.84,-90.66"/>
<polygon fill="black" stroke="black" points="665.37,-77.79 654.84,-78.92 663.77,-84.61 665.37,-77.79"/>
</a>
</g>
</g>
<!-- mosquitto -->
<g id="node6" class="node">
<title>mosquitto</title>
<g id="a_node6"><a xlink:href="https://www.mosquitto.org/" xlink:title=" " target="_top">
<ellipse fill="lightgrey" stroke="black" cx="615.87" cy="-252" rx="51.99" ry="18"/>
<text text-anchor="start" x="583.87" y="-249.3" font-family="'Roboto', sans-serif" text-decoration="underline" font-size="14.00" fill="blue">Mosquitto</text>
</a>
</g>
</g>
<!-- bridge -->
<g id="node10" class="node">
<title>bridge</title>
<g id="a_node10"><a xlink:title=" ">
<ellipse fill="lightgrey" stroke="black" cx="453.43" cy="-207" rx="63.89" ry="18"/>
<text text-anchor="middle" x="453.43" y="-203.3" font-family="'Roboto', sans-serif" font-size="14.00">MQTT bridge</text>
</a>
</g>
</g>
<!-- mosquitto&#45;&gt;bridge -->
<g id="edge7" class="edge">
<title>mosquitto&#45;&gt;bridge</title>
<g id="a_edge7"><a xlink:title=" ">
<path fill="none" stroke="black" d="M575,-240.82C555.14,-235.25 530.83,-228.43 509.24,-222.37"/>
<polygon fill="black" stroke="black" points="510.12,-218.99 499.55,-219.65 508.23,-225.73 510.12,-218.99"/>
</a>
</g>
</g>
<!-- radvd -->
<g id="node7" class="node">
<title>radvd</title>
<g id="a_node7"><a xlink:href="https://radvd.litech.org/" xlink:title=" " target="_top">
<ellipse fill="lightgrey" stroke="black" cx="615.87" cy="-306" rx="34.39" ry="18"/>
<text text-anchor="start" x="597.37" y="-303.3" font-family="'Roboto', sans-serif" text-decoration="underline" font-size="14.00" fill="blue">radvd</text>
</a>
</g>
</g>
<!-- bind9 -->
<g id="node8" class="node">
<title>bind9</title>
<g id="a_node8"><a xlink:href="https://www.isc.org/bind/" xlink:title=" " target="_top">
<ellipse fill="lightgrey" stroke="black" cx="615.87" cy="-360" rx="34.39" ry="18"/>
<text text-anchor="start" x="597.37" y="-357.3" font-family="'Roboto', sans-serif" text-decoration="underline" font-size="14.00" fill="blue">bind9</text>
</a>
</g>
</g>
<!-- hostapd -->
<g id="node9" class="node">
<title>hostapd</title>
<g id="a_node9"><a xlink:href="https://w1.fi/hostapd/" xlink:title=" " target="_top">
<ellipse fill="lightgrey" stroke="black" cx="615.87" cy="-414" rx="44.69" ry="18"/>
<text text-anchor="start" x="589.37" y="-411.3" font-family="'Roboto', sans-serif" text-decoration="underline" font-size="14.00" fill="blue">hostapd</text>
</a>
</g>
</g>
<!-- bridge&#45;&gt;octopus -->
<g id="edge8" class="edge">
<title>bridge&#45;&gt;octopus</title>
<g id="a_edge8"><a xlink:title=" ">
<path fill="none" stroke="black" d="M496.13,-193.5C508.83,-188.85 522.65,-183.22 534.87,-177 552.37,-168.09 570.71,-156.15 585.41,-145.86"/>
<polygon fill="black" stroke="black" points="587.49,-148.67 593.61,-140.02 583.44,-142.97 587.49,-148.67"/>
</a>
</g>
</g>
<!-- pyapp -->
<g id="node11" class="node">
<title>pyapp</title>
<g id="a_node11"><a xlink:title=" ">
<ellipse fill="lightgrey" stroke="black" cx="453.43" cy="-261" rx="36.29" ry="18"/>
<text text-anchor="middle" x="453.43" y="-257.3" font-family="'Roboto', sans-serif" font-size="14.00">pyapp</text>
</a>
</g>
</g>
<!-- pyapp&#45;&gt;mosquitto -->
<g id="edge6" class="edge">
<title>pyapp&#45;&gt;mosquitto</title>
<g id="a_edge6"><a xlink:title=" ">
<path fill="none" stroke="black" d="M489.64,-259.02C508.51,-257.97 532.3,-256.63 554.06,-255.41"/>
<polygon fill="black" stroke="black" points="554.43,-258.9 564.21,-254.84 554.03,-251.91 554.43,-258.9"/>
</a>
</g>
</g>
<!-- cron -->
<g id="node12" class="node">
<title>cron</title>
<g id="a_node12"><a xlink:title=" ">
<ellipse fill="lightgrey" stroke="black" cx="453.43" cy="-405" rx="29.5" ry="18"/>
<text text-anchor="middle" x="453.43" y="-401.3" font-family="'Roboto', sans-serif" font-size="14.00">cron</text>
</a>
</g>
</g>
<!-- wpa_supplicant -->
<g id="node13" class="node">
<title>wpa_supplicant</title>
<g id="a_node13"><a xlink:href="https://w1.fi/wpa_supplicant/" xlink:title=" " target="_top">
<ellipse fill="lightgrey" stroke="black" cx="453.43" cy="-333" rx="73.39" ry="18"/>
<text text-anchor="start" x="404.93" y="-330.3" font-family="'Roboto', sans-serif" text-decoration="underline" font-size="14.00" fill="blue">wpa supplicant</text>
</a>
</g>
</g>
<!-- cron&#45;&gt;wpa_supplicant -->
<g id="edge1" class="edge">
<title>cron&#45;&gt;wpa_supplicant</title>
<g id="a_edge1"><a xlink:title=" ">
<path fill="none" stroke="black" d="M453.43,-386.86C453.43,-378.27 453.43,-369.68 453.43,-361.09"/>
<polygon fill="black" stroke="black" points="456.93,-361 453.43,-351 449.93,-361 456.93,-361"/>
</a>
</g>
</g>
<!-- wpa_supplicant&#45;&gt;radvd -->
<g id="edge3" class="edge">
<title>wpa_supplicant&#45;&gt;radvd</title>
<g id="a_edge3"><a xlink:title=" ">
<path fill="none" stroke="black" d="M544.72,-316.79C554.29,-315.18 563.66,-313.6 572.27,-312.15"/>
<path fill="none" stroke="black" d="M545.05,-318.76C554.62,-317.15 563.99,-315.58 572.61,-314.13"/>
<polygon fill="black" stroke="black" points="544.15,-314.35 534.87,-319.46 545.31,-321.25 544.15,-314.35"/>
<polygon fill="black" stroke="black" points="573.44,-316.52 582.72,-311.41 572.28,-309.62 573.44,-316.52"/>
</a>
</g>
</g>
<!-- wpa_supplicant&#45;&gt;bind9 -->
<g id="edge4" class="edge">
<title>wpa_supplicant&#45;&gt;bind9</title>
<g id="a_edge4"><a xlink:title=" ">
<path fill="none" stroke="black" d="M545.05,-347.24C554.62,-348.85 563.99,-350.42 572.61,-351.87"/>
<path fill="none" stroke="black" d="M544.72,-349.21C554.29,-350.82 563.66,-352.4 572.27,-353.85"/>
<polygon fill="black" stroke="black" points="545.31,-344.75 534.87,-346.54 544.15,-351.65 545.31,-344.75"/>
<polygon fill="black" stroke="black" points="572.28,-356.38 582.72,-354.59 573.44,-349.48 572.28,-356.38"/>
</a>
</g>
</g>
<!-- wpa_supplicant&#45;&gt;hostapd -->
<g id="edge2" class="edge">
<title>wpa_supplicant&#45;&gt;hostapd</title>
<g id="a_edge2"><a xlink:title=" ">
<path fill="none" stroke="black" d="M495.95,-352.84C521.44,-365.71 553.91,-382.1 578.54,-394.54"/>
<path fill="none" stroke="black" d="M495.05,-354.63C520.54,-367.5 553,-383.89 577.64,-396.33"/>
<polygon fill="black" stroke="black" points="497.01,-350.58 486.51,-349.2 493.86,-356.83 497.01,-350.58"/>
<polygon fill="black" stroke="black" points="576.62,-398.61 587.12,-399.99 579.77,-392.36 576.62,-398.61"/>
</a>
</g>
</g>
<!-- wpa_supplicant&#45;&gt;pyapp -->
<g id="edge5" class="edge">
<title>wpa_supplicant&#45;&gt;pyapp</title>
<g id="a_edge5"><a xlink:title=" ">
<path fill="none" stroke="black" d="M453.43,-314.86C453.43,-306.27 453.43,-297.68 453.43,-289.09"/>
<polygon fill="black" stroke="black" points="456.93,-289 453.43,-279 449.93,-289 456.93,-289"/>
</a>
</g>
</g>
<!-- telapp -->
<g id="node14" class="node">
<title>telapp</title>
<g id="a_node14"><a xlink:title=" ">
<ellipse fill="lightgrey" stroke="black" cx="56.3" cy="-124" rx="40.09" ry="18"/>
<text text-anchor="middle" x="56.3" y="-120.3" font-family="'Roboto', sans-serif" font-size="14.00">Tel app</text>
</a>
</g>
</g>
<!-- telapp&#45;&gt;rabbit -->
<g id="edge13" class="edge">
<title>telapp&#45;&gt;rabbit</title>
<g id="a_edge13"><a xlink:title=" ">
<path fill="none" stroke="black" d="M107.1,-123C141.92,-123 188.61,-123 225.46,-123"/>
<path fill="none" stroke="black" d="M107.1,-125C141.92,-125 188.61,-125 225.46,-125"/>
<polygon fill="black" stroke="black" points="106.75,-120.5 96.75,-124 106.75,-127.5 106.75,-120.5"/>
<polygon fill="black" stroke="black" points="225.58,-127.5 235.58,-124 225.58,-120.5 225.58,-127.5"/>
</a>
</g>
<text text-anchor="middle" x="166.09" y="-127.8" font-family="'Roboto', sans-serif" font-size="14.00">AMQP TLS</text>
</g>
<!-- client -->
<g id="node15" class="node">
<title>client</title>
<g id="a_node15"><a xlink:title=" ">
<polygon fill="lightgrey" stroke="black" points="480.43,-36 426.43,-36 426.43,0 480.43,0 480.43,-36"/>
<text text-anchor="middle" x="453.43" y="-14.3" font-family="'Roboto', sans-serif" font-size="14.00">Client</text>
</a>
</g>
</g>
<!-- client&#45;&gt;fox -->
<g id="edge14" class="edge">
<title>client&#45;&gt;fox</title>
<g id="a_edge14"><a xlink:title=" ">
<path fill="none" stroke="black" d="M490.43,-27.09C504.39,-30.81 520.46,-35.34 534.87,-40 551.1,-45.25 568.89,-51.84 583.57,-57.5"/>
<polygon fill="black" stroke="black" points="491.25,-23.69 480.69,-24.53 489.47,-30.46 491.25,-23.69"/>
</a>
</g>
</g>
</g>
</svg>
