<?xml version="1.0" encoding="UTF-8" standalone="no"?>
<!DOCTYPE svg PUBLIC "-//W3C//DTD SVG 1.1//EN"
 "http://www.w3.org/Graphics/SVG/1.1/DTD/svg11.dtd">
<!-- Generated by graphviz version 6.0.1 (20220911.1526)
 -->
<!-- Title: Warehouse simulation Pages: 1 -->
<svg width="863pt" height="363pt"
 viewBox="0.00 0.00 863.06 363.00" xmlns="http://www.w3.org/2000/svg" xmlns:xlink="http://www.w3.org/1999/xlink">
<g id="graph0" class="graph" transform="scale(1 1) rotate(0) translate(4 359)">
<title>Warehouse simulation</title>
<g id="a_graph0"><a xlink:title=" ">
<polygon fill="white" stroke="none" points="-4,4 -4,-359 859.06,-359 859.06,4 -4,4"/>
<text text-anchor="middle" x="427.53" y="-339.8" font-family="'Roboto', sans-serif" font-size="14.00">Warehouse simulation</text>
</a>
</g>
<g id="clust1" class="cluster">
<title>cluster_warehouse</title>
<g id="a_clust1"><a xlink:title=" ">
<polygon fill="#f0f0f0" stroke="black" points="468.68,-8 468.68,-245 752.06,-245 752.06,-8 468.68,-8"/>
<text text-anchor="middle" x="610.37" y="-229.8" font-family="'Roboto', sans-serif" font-size="14.00">Warehouse</text>
</a>
</g>
</g>
<g id="clust2" class="cluster">
<title>cluster_package1</title>
<g id="a_clust2"><a xlink:title=" ">
<polygon fill="#f0f0f0" stroke="black" points="8,-195 8,-324 279.68,-324 279.68,-195 8,-195"/>
<text text-anchor="middle" x="143.84" y="-308.8" font-family="'Roboto', sans-serif" font-size="14.00">Package</text>
</a>
</g>
</g>
<g id="clust3" class="cluster">
<title>cluster_package2</title>
<g id="a_clust3"><a xlink:title=" ">
<polygon fill="#f0f0f0" stroke="black" points="8,-58 8,-187 279.68,-187 279.68,-58 8,-58"/>
<text text-anchor="middle" x="143.84" y="-171.8" font-family="'Roboto', sans-serif" font-size="14.00">Package</text>
</a>
</g>
</g>
<!-- mosquitto -->
<g id="node1" class="node">
<title>mosquitto</title>
<g id="a_node1"><a xlink:href="https://www.mosquitto.org/" xlink:title=" " target="_top">
<ellipse fill="lightgrey" stroke="black" cx="528.68" cy="-196" rx="51.99" ry="18"/>
<text text-anchor="start" x="496.68" y="-193.3" font-family="'Roboto', sans-serif" text-decoration="underline" font-size="14.00" fill="blue">Mosquitto</text>
</a>
</g>
</g>
<!-- bridge -->
<g id="node5" class="node">
<title>bridge</title>
<g id="a_node5"><a xlink:title=" ">
<ellipse fill="lightgrey" stroke="black" cx="680.37" cy="-196" rx="63.89" ry="18"/>
<text text-anchor="middle" x="680.37" y="-192.3" font-family="'Roboto', sans-serif" font-size="14.00">MQTT bridge</text>
</a>
</g>
</g>
<!-- mosquitto&#45;&gt;bridge -->
<g id="edge15" class="edge">
<title>mosquitto&#45;&gt;bridge</title>
<g id="a_edge15"><a xlink:title=" ">
<path fill="none" stroke="black" d="M580.77,-196C589.05,-196 597.76,-196 606.44,-196"/>
<polygon fill="black" stroke="black" points="606.58,-199.5 616.58,-196 606.58,-192.5 606.58,-199.5"/>
</a>
</g>
</g>
<!-- radvd -->
<g id="node2" class="node">
<title>radvd</title>
<g id="a_node2"><a xlink:href="https://radvd.litech.org/" xlink:title=" " target="_top">
<ellipse fill="lightgrey" stroke="black" cx="680.37" cy="-142" rx="34.39" ry="18"/>
<text text-anchor="start" x="661.87" y="-139.3" font-family="'Roboto', sans-serif" text-decoration="underline" font-size="14.00" fill="blue">radvd</text>
</a>
</g>
</g>
<!-- bind9 -->
<g id="node3" class="node">
<title>bind9</title>
<g id="a_node3"><a xlink:href="https://www.isc.org/bind/" xlink:title=" " target="_top">
<ellipse fill="lightgrey" stroke="black" cx="680.37" cy="-34" rx="34.39" ry="18"/>
<text text-anchor="start" x="661.87" y="-31.3" font-family="'Roboto', sans-serif" text-decoration="underline" font-size="14.00" fill="blue">bind9</text>
</a>
</g>
</g>
<!-- hostapd -->
<g id="node4" class="node">
<title>hostapd</title>
<g id="a_node4"><a xlink:href="https://w1.fi/hostapd/" xlink:title=" " target="_top">
<ellipse fill="lightgrey" stroke="black" cx="680.37" cy="-88" rx="44.69" ry="18"/>
<text text-anchor="start" x="653.87" y="-85.3" font-family="'Roboto', sans-serif" text-decoration="underline" font-size="14.00" fill="blue">hostapd</text>
</a>
</g>
</g>
<!-- octopus -->
<g id="node16" class="node">
<title>octopus</title>
<g id="a_node16"><a xlink:title=" ">
<polygon fill="lightgrey" stroke="black" points="855.06,-214 780.06,-214 780.06,-178 855.06,-178 855.06,-214"/>
<text text-anchor="middle" x="817.56" y="-192.3" font-family="'Roboto', sans-serif" font-size="14.00">REST API</text>
</a>
</g>
</g>
<!-- bridge&#45;&gt;octopus -->
<g id="edge16" class="edge">
<title>bridge&#45;&gt;octopus</title>
<g id="a_edge16"><a xlink:title=" ">
<path fill="none" stroke="black" d="M744.21,-196C752.84,-196 761.58,-196 769.85,-196"/>
<polygon fill="black" stroke="black" points="770.04,-199.5 780.04,-196 770.04,-192.5 770.04,-199.5"/>
</a>
</g>
</g>
<!-- wlan0 -->
<g id="node6" class="node">
<title>wlan0</title>
<g id="a_node6"><a xlink:title=" ">
<polygon fill="lightgrey" stroke="black" points="556.18,-106 501.18,-106 501.18,-70 556.18,-70 556.18,-106"/>
<text text-anchor="middle" x="528.68" y="-84.3" font-family="'Roboto', sans-serif" font-size="14.00">wlan0</text>
</a>
</g>
</g>
<!-- wlan0&#45;&gt;radvd -->
<g id="edge13" class="edge">
<title>wlan0&#45;&gt;radvd</title>
<g id="a_edge13"><a xlink:title=" ">
<path fill="none" stroke="black" d="M566.4,-100.19C589.45,-108.5 619.17,-119.22 642.39,-127.6"/>
<path fill="none" stroke="black" d="M565.72,-102.07C588.77,-110.38 618.49,-121.1 641.71,-129.48"/>
<polygon fill="black" stroke="black" points="567.03,-97.76 556.44,-97.65 564.66,-104.34 567.03,-97.76"/>
<polygon fill="black" stroke="black" points="640.97,-131.87 651.57,-131.97 643.35,-125.29 640.97,-131.87"/>
</a>
</g>
</g>
<!-- wlan0&#45;&gt;bind9 -->
<g id="edge14" class="edge">
<title>wlan0&#45;&gt;bind9</title>
<g id="a_edge14"><a xlink:title=" ">
<path fill="none" stroke="black" d="M565.72,-73.93C588.77,-65.62 618.49,-54.9 641.71,-46.52"/>
<path fill="none" stroke="black" d="M566.4,-75.81C589.45,-67.5 619.17,-56.78 642.39,-48.4"/>
<polygon fill="black" stroke="black" points="564.66,-71.66 556.44,-78.35 567.03,-78.24 564.66,-71.66"/>
<polygon fill="black" stroke="black" points="643.35,-50.71 651.57,-44.03 640.97,-44.13 643.35,-50.71"/>
</a>
</g>
</g>
<!-- wlan0&#45;&gt;hostapd -->
<g id="edge12" class="edge">
<title>wlan0&#45;&gt;hostapd</title>
<g id="a_edge12"><a xlink:title=" ">
<path fill="none" stroke="black" d="M566.47,-87C584.08,-87 605.52,-87 624.97,-87"/>
<path fill="none" stroke="black" d="M566.47,-89C584.08,-89 605.52,-89 624.97,-89"/>
<polygon fill="black" stroke="black" points="566.44,-84.5 556.44,-88 566.44,-91.5 566.44,-84.5"/>
<polygon fill="black" stroke="black" points="625.23,-91.5 635.23,-88 625.23,-84.5 625.23,-91.5"/>
</a>
</g>
</g>
<!-- hwsim0 -->
<g id="node7" class="node">
<title>hwsim0</title>
<g id="a_node7"><a xlink:href="https://www.kernel.org/doc/html/latest/networking/mac80211_hwsim/mac80211_hwsim.html" xlink:title=" " target="_top">
<polygon fill="lightgrey" stroke="black" points="440.68,-106 307.68,-106 307.68,-70 440.68,-70 440.68,-106"/>
<text text-anchor="start" x="315.68" y="-85.3" font-family="'Roboto', sans-serif" text-decoration="underline" font-size="14.00" fill="blue">mac80211_hwsim</text>
</a>
</g>
</g>
<!-- hwsim0&#45;&gt;wlan0 -->
<g id="edge11" class="edge">
<title>hwsim0&#45;&gt;wlan0</title>
<g id="a_edge11"><a xlink:title=" ">
<path fill="none" stroke="black" d="M450.96,-87C464.82,-87 478.7,-87 490.77,-87"/>
<path fill="none" stroke="black" d="M450.96,-89C464.82,-89 478.7,-89 490.77,-89"/>
<polygon fill="black" stroke="black" points="450.74,-84.5 440.74,-88 450.74,-91.5 450.74,-84.5"/>
<polygon fill="black" stroke="black" points="490.86,-91.5 500.86,-88 490.86,-84.5 490.86,-91.5"/>
</a>
</g>
</g>
<!-- pyapp1 -->
<g id="node8" class="node">
<title>pyapp1</title>
<g id="a_node8"><a xlink:title=" ">
<ellipse fill="lightgrey" stroke="black" cx="235.28" cy="-275" rx="36.29" ry="18"/>
<text text-anchor="middle" x="235.28" y="-271.3" font-family="'Roboto', sans-serif" font-size="14.00">pyapp</text>
</a>
</g>
</g>
<!-- pyapp1&#45;&gt;mosquitto -->
<g id="edge5" class="edge">
<title>pyapp1&#45;&gt;mosquitto</title>
<g id="a_edge5"><a xlink:title=" ">
<path fill="none" stroke="black" stroke-dasharray="5,2" d="M267.47,-266.55C317.67,-252.93 416.89,-226.04 477.25,-209.67"/>
<polygon fill="black" stroke="black" points="478.22,-213.03 486.96,-207.04 476.39,-206.28 478.22,-213.03"/>
</a>
</g>
</g>
<!-- cron1 -->
<g id="node9" class="node">
<title>cron1</title>
<g id="a_node9"><a xlink:title=" ">
<ellipse fill="lightgrey" stroke="black" cx="89.44" cy="-275" rx="29.5" ry="18"/>
<text text-anchor="middle" x="89.44" y="-271.3" font-family="'Roboto', sans-serif" font-size="14.00">cron</text>
</a>
</g>
</g>
<!-- wpa_supplicant1 -->
<g id="node10" class="node">
<title>wpa_supplicant1</title>
<g id="a_node10"><a xlink:href="https://w1.fi/wpa_supplicant/" xlink:title=" " target="_top">
<ellipse fill="lightgrey" stroke="black" cx="89.44" cy="-221" rx="73.39" ry="18"/>
<text text-anchor="start" x="40.94" y="-218.3" font-family="'Roboto', sans-serif" text-decoration="underline" font-size="14.00" fill="blue">wpa supplicant</text>
</a>
</g>
</g>
<!-- cron1&#45;&gt;wpa_supplicant1 -->
<g id="edge2" class="edge">
<title>cron1&#45;&gt;wpa_supplicant1</title>
<g id="a_edge2"><a xlink:title=" ">
<path fill="none" stroke="black" d="M89.44,-256.79C89.44,-254.31 89.44,-251.83 89.44,-249.34"/>
<polygon fill="black" stroke="black" points="92.94,-249.14 89.44,-239.14 85.94,-249.14 92.94,-249.14"/>
</a>
</g>
</g>
<!-- wpa_supplicant1&#45;&gt;pyapp1 -->
<g id="edge4" class="edge">
<title>wpa_supplicant1&#45;&gt;pyapp1</title>
<g id="a_edge4"><a xlink:title=" ">
<path fill="none" stroke="black" d="M130.69,-235.96C141.18,-239.87 152.46,-244.08 162.89,-248 173.72,-252.07 185.46,-256.5 196.24,-260.57"/>
<polygon fill="black" stroke="black" points="195.22,-263.93 205.81,-264.2 197.69,-257.38 195.22,-263.93"/>
</a>
</g>
</g>
<!-- wlan1 -->
<g id="node11" class="node">
<title>wlan1</title>
<g id="a_node11"><a xlink:title=" ">
<polygon fill="lightgrey" stroke="black" points="262.78,-239 207.78,-239 207.78,-203 262.78,-203 262.78,-239"/>
<text text-anchor="middle" x="235.28" y="-217.3" font-family="'Roboto', sans-serif" font-size="14.00">wlan0</text>
</a>
</g>
</g>
<!-- wpa_supplicant1&#45;&gt;wlan1 -->
<g id="edge3" class="edge">
<title>wpa_supplicant1&#45;&gt;wlan1</title>
<g id="a_edge3"><a xlink:title=" ">
<path fill="none" stroke="black" d="M173.22,-220C181.66,-220 189.89,-220 197.44,-220"/>
<path fill="none" stroke="black" d="M173.22,-222C181.66,-222 189.89,-222 197.44,-222"/>
<polygon fill="black" stroke="black" points="173.21,-217.5 163.21,-221 173.21,-224.5 173.21,-217.5"/>
<polygon fill="black" stroke="black" points="197.6,-224.5 207.6,-221 197.6,-217.5 197.6,-224.5"/>
</a>
</g>
</g>
<!-- wlan1&#45;&gt;hwsim0 -->
<g id="edge1" class="edge">
<title>wlan1&#45;&gt;hwsim0</title>
<g id="a_edge1"><a xlink:title=" ">
<path fill="none" stroke="black" d="M270.75,-197.01C273.61,-194.81 276.42,-192.53 279.02,-190.25 306.15,-166.5 333.54,-135.27 351.56,-113.5"/>
<path fill="none" stroke="black" d="M271.97,-198.59C274.87,-196.36 277.68,-194.08 280.34,-191.75 307.66,-167.81 335.05,-136.59 353.1,-114.78"/>
<polygon fill="black" stroke="black" points="269.14,-195.09 263.17,-203.84 273.29,-200.73 269.14,-195.09"/>
<polygon fill="black" stroke="black" points="355.13,-116.24 358.76,-106.28 349.72,-111.8 355.13,-116.24"/>
</a>
</g>
</g>
<!-- pyapp2 -->
<g id="node12" class="node">
<title>pyapp2</title>
<g id="a_node12"><a xlink:title=" ">
<ellipse fill="lightgrey" stroke="black" cx="235.28" cy="-138" rx="36.29" ry="18"/>
<text text-anchor="middle" x="235.28" y="-134.3" font-family="'Roboto', sans-serif" font-size="14.00">pyapp</text>
</a>
</g>
</g>
<!-- pyapp2&#45;&gt;mosquitto -->
<g id="edge10" class="edge">
<title>pyapp2&#45;&gt;mosquitto</title>
<g id="a_edge10"><a xlink:title=" ">
<path fill="none" stroke="black" stroke-dasharray="5,2" d="M269.43,-144.6C319.06,-154.48 413.26,-173.23 473.13,-185.14"/>
<polygon fill="black" stroke="black" points="472.67,-188.62 483.16,-187.14 474.04,-181.75 472.67,-188.62"/>
</a>
</g>
</g>
<!-- cron2 -->
<g id="node13" class="node">
<title>cron2</title>
<g id="a_node13"><a xlink:title=" ">
<ellipse fill="lightgrey" stroke="black" cx="89.44" cy="-138" rx="29.5" ry="18"/>
<text text-anchor="middle" x="89.44" y="-134.3" font-family="'Roboto', sans-serif" font-size="14.00">cron</text>
</a>
</g>
</g>
<!-- wpa_supplicant2 -->
<g id="node14" class="node">
<title>wpa_supplicant2</title>
<g id="a_node14"><a xlink:href="https://w1.fi/wpa_supplicant/" xlink:title=" " target="_top">
<ellipse fill="lightgrey" stroke="black" cx="89.44" cy="-84" rx="73.39" ry="18"/>
<text text-anchor="start" x="40.94" y="-81.3" font-family="'Roboto', sans-serif" text-decoration="underline" font-size="14.00" fill="blue">wpa supplicant</text>
</a>
</g>
</g>
<!-- cron2&#45;&gt;wpa_supplicant2 -->
<g id="edge7" class="edge">
<title>cron2&#45;&gt;wpa_supplicant2</title>
<g id="a_edge7"><a xlink:title=" ">
<path fill="none" stroke="black" d="M89.44,-119.79C89.44,-117.31 89.44,-114.83 89.44,-112.34"/>
<polygon fill="black" stroke="black" points="92.94,-112.14 89.44,-102.14 85.94,-112.14 92.94,-112.14"/>
</a>
</g>
</g>
<!-- wpa_supplicant2&#45;&gt;pyapp2 -->
<g id="edge9" class="edge">
<title>wpa_supplicant2&#45;&gt;pyapp2</title>
<g id="a_edge9"><a xlink:title=" ">
<path fill="none" stroke="black" d="M130.69,-98.96C141.18,-102.87 152.46,-107.08 162.89,-111 173.72,-115.07 185.46,-119.5 196.24,-123.57"/>
<polygon fill="black" stroke="black" points="195.22,-126.93 205.81,-127.2 197.69,-120.38 195.22,-126.93"/>
</a>
</g>
</g>
<!-- wlan2 -->
<g id="node15" class="node">
<title>wlan2</title>
<g id="a_node15"><a xlink:title=" ">
<polygon fill="lightgrey" stroke="black" points="262.78,-102 207.78,-102 207.78,-66 262.78,-66 262.78,-102"/>
<text text-anchor="middle" x="235.28" y="-80.3" font-family="'Roboto', sans-serif" font-size="14.00">wlan0</text>
</a>
</g>
</g>
<!-- wpa_supplicant2&#45;&gt;wlan2 -->
<g id="edge8" class="edge">
<title>wpa_supplicant2&#45;&gt;wlan2</title>
<g id="a_edge8"><a xlink:title=" ">
<path fill="none" stroke="black" d="M173.22,-83C181.66,-83 189.89,-83 197.44,-83"/>
<path fill="none" stroke="black" d="M173.22,-85C181.66,-85 189.89,-85 197.44,-85"/>
<polygon fill="black" stroke="black" points="173.21,-80.5 163.21,-84 173.21,-87.5 173.21,-80.5"/>
<polygon fill="black" stroke="black" points="197.6,-87.5 207.6,-84 197.6,-80.5 197.6,-87.5"/>
</a>
</g>
</g>
<!-- wlan2&#45;&gt;hwsim0 -->
<g id="edge6" class="edge">
<title>wlan2&#45;&gt;hwsim0</title>
<g id="a_edge6"><a xlink:title=" ">
<path fill="none" stroke="black" d="M273.2,-84.08C280.78,-84.3 289.02,-84.54 297.41,-84.79"/>
<path fill="none" stroke="black" d="M273.14,-86.08C280.72,-86.3 288.96,-86.54 297.35,-86.78"/>
<polygon fill="black" stroke="black" points="273.1,-81.57 263,-84.78 272.9,-88.57 273.1,-81.57"/>
<polygon fill="black" stroke="black" points="297.55,-89.29 307.65,-86.09 297.75,-82.29 297.55,-89.29"/>
</a>
</g>
</g>
</g>
</svg>
